<?xml version="1.0" standalone="no"?>
<!DOCTYPE svg PUBLIC "-//W3C//DTD SVG 1.1//EN" "http://www.w3.org/Graphics/SVG/1.1/DTD/svg11.dtd" >
<svg xmlns="http://www.w3.org/2000/svg">
<metadata>
This is a custom SVG webfont generated by Font Squirrel.
Designer    : Hans Jurg Hunziker
Foundry     : URW
Foundry URL : httpwwwurwppde
</metadata>
<defs>
<font id="webfontM6z3cZ62" horiz-adv-x="1179" vert-adv-y="2048" >
<font-face units-per-em="2048" ascent="1556" descent="-492" />
<missing-glyph horiz-adv-x="512" />
<glyph unicode=" " horiz-adv-x="512" vert-adv-y="0" />
<glyph unicode="!" horiz-adv-x="634" vert-adv-y="1472" d="M238 100q0 55 36 88q33 33 86 33q51 0 84 -33q35 -33 35 -88q0 -53 -35 -88q-33 -33 -86 -32q-51 0 -84 32q-36 37 -36 88zM274 1325h168l-18 -950h-131z" />
<glyph unicode="&#x22;" horiz-adv-x="663" vert-adv-y="0" d="M102 1493h164l-10 -459h-143zM397 1497h164l-10 -459h-143z" />
<glyph unicode="#" vert-adv-y="1472" d="M113 424v119h200l47 334h-182v118h199l59 422h121l-57 -422h262l57 422h123l-57 -422h182v-118h-199l-47 -334h183v-119h-199l-60 -424h-122l59 424h-262l-60 -424h-122l59 424h-184zM436 543h262l47 334h-262z" />
<glyph unicode="$" vert-adv-y="1472" d="M141 1044q0 250 215 349q76 35 176 41v151h103v-147q152 -6 352 -82v-299h-143l-17 176q-74 59 -192 72v-523q168 -63 227 -100q90 -53 127 -129q37 -71 37 -166q0 -254 -225 -358q-66 -31 -178 -47v-156h-103v154q-78 0 -178 22q-113 23 -199 59v299h146l16 -186 q33 -18 92 -39q68 -22 123 -24v534q-175 71 -246 123q-133 100 -133 276zM307 1073q0 -117 113 -194q55 -35 112 -60v486q-72 -8 -120 -37q-105 -62 -105 -195zM623 113q84 10 149 63q88 70 88 189q0 115 -100 178q-8 6 -137 63v-493z" />
<glyph unicode="%" horiz-adv-x="1542" vert-adv-y="1472" d="M76 1028q0 182 51 277q70 125 242 125q175 0 239 -148q43 -92 43 -254q0 -180 -53 -276q-68 -125 -236 -125q-176 0 -243 145q-43 92 -43 256zM203 1026q0 -305 162 -305q160 0 159.5 307t-162.5 307q-89 0 -129 -98q-30 -68 -30 -211zM434 -41l559 1499h121l-559 -1499 h-121zM893 389q0 180 53 277q68 125 240 125q178 0 241 -148q41 -88 41 -254q0 -178 -53 -274q-68 -127 -233 -127q-178 0 -246 147q-43 92 -43 254zM1020 389q0 -307 162 -307q160 0 159.5 307t-161.5 307q-90 0 -129 -96q-31 -72 -31 -211z" />
<glyph unicode="&#x26;" horiz-adv-x="1390" vert-adv-y="1472" d="M133 360q0 186 139 304q51 47 174 104q-63 74 -96 123q-76 115 -76 227q0 143 101 232q96 88 264 88t272 -88q94 -82 95 -226q0 -176 -152 -282q-53 -35 -190 -99l331 -389q98 123 129 328l-118 6v111h403v-111l-137 -6q-14 -111 -58 -227q-41 -100 -118 -211l106 -127 l172 -6v-111h-268l-111 135q-78 -68 -143 -98q-125 -57 -277 -57q-180 0 -292 81q-150 106 -150 299zM307 377q0 -135 94 -203q84 -59 197 -59q178 0 303 125l-381 440q-98 -53 -143 -109q-70 -81 -70 -194zM438 1118q0 -125 150 -280l26 12q108 49 172 111q55 55 56 147 q0 90 -49 139q-57 57 -153.5 57.5t-150.5 -53.5q-51 -51 -51 -133z" />
<glyph unicode="'" horiz-adv-x="368" vert-adv-y="1472" d="M102 1497h164l-10 -459h-143z" />
<glyph unicode="(" horiz-adv-x="735" vert-adv-y="1472" d="M154 622.5q0 374.5 215 694.5q94 141 213 246l77 -86q-88 -86 -170 -224q-172 -291 -172 -630q0 -336 172 -629q80 -139 170 -225l-77 -86q-113 96 -213 245q-215 320 -215 694.5z" />
<glyph unicode=")" horiz-adv-x="735" vert-adv-y="1472" d="M78 -231q94 90 172 223q170 289 170 631t-170 630q-76 129 -172 224l78 86q117 -101 215 -246q213 -317 213 -694t-213 -695q-90 -137 -215 -245z" />
<glyph unicode="*" vert-adv-y="1472" d="M201 1153l49 154l285 -117l-25 307h160l-27 -307l287 117l49 -154l-295 -70l190 -221l-129 -94l-155 252l-156 -252l-129 94l191 221z" />
<glyph unicode="+" vert-adv-y="1472" d="M72 457v123h456v458h123v-458h457v-123h-457v-457h-123v457h-456z" />
<glyph unicode="," horiz-adv-x="589" vert-adv-y="1472" d="M92 -250l141 459h197l-176 -459h-162z" />
<glyph unicode="-" horiz-adv-x="636" vert-adv-y="1472" d="M82 510v125h473v-125h-473z" />
<glyph unicode="." horiz-adv-x="589" vert-adv-y="1472" d="M174 100q0 55 37 88q33 33 86 33q51 0 84 -33q35 -33 35 -88q0 -53 -35 -88q-33 -33 -86 -32q-51 0 -84 32q-37 37 -37 88z" />
<glyph unicode="/" horiz-adv-x="544" vert-adv-y="1472" d="M61 -41l287 1499h135l-286 -1499h-136z" />
<glyph unicode="0" vert-adv-y="1472" d="M102 711q0 322 93 497q121 229 403 230q479 0 479 -729q0 -324 -92 -500q-121 -229 -395 -229q-299 0 -416 268q-72 164 -72 463zM268 709q0 -295 70 -435q80 -160 252 -159q184 0 264 188q57 137 57 408q0 293 -69 432q-80 160 -256 160q-102 0 -180 -68 q-138 -118 -138 -526z" />
<glyph unicode="1" vert-adv-y="1472" d="M217 1180l375 237h141v-1300l180 -6v-111h-518v111l180 6v1122l-288 -184z" />
<glyph unicode="2" vert-adv-y="1472" d="M131 0v143q319 287 473 459q133 147 191 260q53 106 53 201q0 108 -80 172q-88 72 -225 72q-158 0 -330 -107l-41 141q199 96 389 97q188 0 313 -84q139 -94 140 -283q0 -137 -80 -276q-94 -164 -373 -443q-119 -119 -233 -217h698v-135h-895z" />
<glyph unicode="3" vert-adv-y="1472" d="M127 43l37 133q180 -66 330 -65q166 0 258 86q86 83 86 209q0 154 -144 223q-111 55 -303 55q-27 0 -80 -4v135q57 -4 86 -4q174 0 283 59q139 76 139 213q0 100 -76 162q-80 61 -215 62q-139 0 -323 -70l-33 133q188 68 373 68q207 0 329 -101q111 -88 111 -237 q0 -120 -67 -209q-80 -109 -250 -141q141 -12 223 -84q113 -94 113 -265q0 -201 -152 -317q-131 -104 -348 -104q-187 0 -377 63z" />
<glyph unicode="4" vert-adv-y="1472" d="M70 408v155l610 854h184v-874h219v-135h-219v-291l183 -6v-111h-519v111l181 6v291h-639zM219 543h490v692z" />
<glyph unicode="5" vert-adv-y="1472" d="M147 70l60 133q163 -92 307 -92q162 0 260 104q92 101 92 252q0 133 -75 211q-86 92 -242 92q-166 0 -363 -76l21 723h766v-135h-604l-19 -414q113 33 223 33q209 0 328 -113q131 -123 131 -329q0 -227 -164 -365q-139 -115 -350 -114q-185 0 -371 90z" />
<glyph unicode="6" vert-adv-y="1472" d="M139 565q0 303 117 527q109 207 297 286q137 59 317 60q39 0 91 -2l-9 -133q-74 4 -84 4q-289 0 -430 -211q-92 -137 -121 -365q129 164 340 164q133 0 240 -70q178 -117 178 -376q0 -211 -131 -340q-129 -129 -336 -129q-256 0 -372 182q-97 151 -97 403zM313 434 q0 -147 80 -235q84 -88 217 -88t217 88q82 92 82 237q0 154 -75 238q-82 90 -222 90q-133 0 -217 -90q-82 -84 -82 -240z" />
<glyph unicode="7" vert-adv-y="1472" d="M111 1057v360h929v-135l-614 -1282h-180l626 1282h-600l-16 -225h-145z" />
<glyph unicode="8" vert-adv-y="1472" d="M113 365q0 276 321 370q-127 57 -186 117q-90 94 -90 229q0 170 123 262q125 94 311 95q195 0 315 -95q119 -94 119 -258q0 -156 -125 -251q-43 -34 -135 -80q123 -53 192 -113q109 -98 109 -258q0 -188 -133 -297q-131 -106 -344 -106q-209 0 -342 102 q-135 105 -135 283zM279 371q0 -123 88 -191q88 -70 225 -69q133 0 223 73q86 70 86 181q0 82 -47 145q-41 55 -168 121q-10 4 -74 35l-32 12q-301 -89 -301 -307zM322 1083q0 -78 47 -131q61 -70 270 -145l16 8q86 43 140 96q68 68 67 168q0 106 -71 166q-78 61 -199 62 q-119 0 -194.5 -57.5t-75.5 -166.5z" />
<glyph unicode="9" vert-adv-y="1472" d="M104 967q0 213 132 342q133 129 335 129q178 0 291 -92q178 -141 178 -494q0 -303 -116 -526q-109 -207 -297 -287q-137 -59 -320 -59q-41 0 -88 2l8 133q66 -4 84 -4q287 0 428 211q96 141 123 364q-129 -164 -342 -164q-131 0 -237 70q-179 117 -179 375zM270 979 q0 -152 76 -236q78 -90 215 -90t221 90q84 88 84 238q0 154 -82 238q-84 88 -221 88q-127 0 -211 -88q-82 -84 -82 -240z" />
<glyph unicode=":" horiz-adv-x="589" vert-adv-y="1472" d="M217 100q0 55 37 88q33 33 86 33q51 0 84 -33q35 -33 35 -88q0 -53 -35 -88q-33 -33 -86 -32q-51 0 -84 32q-37 37 -37 88zM217 862q0 55 37 88q33 33 86 33q51 0 84 -33q35 -35 35 -88t-35 -88q-33 -33 -86 -33q-51 0 -84 33q-37 37 -37 88z" />
<glyph unicode=";" horiz-adv-x="589" vert-adv-y="1472" d="M92 -250l141 459h197l-176 -459h-162zM217 862q0 55 37 88q33 33 86 33q51 0 84 -33q35 -35 35 -88t-35 -88q-33 -33 -86 -33q-51 0 -84 33q-37 37 -37 88z" />
<glyph unicode="&#x3c;" vert-adv-y="1472" d="M66 467v104l1036 488v-133l-871 -408l871 -405v-133z" />
<glyph unicode="=" vert-adv-y="1472" d="M72 309v123h1036v-123h-1036zM72 604v123h1036v-123h-1036z" />
<glyph unicode="&#x3e;" vert-adv-y="1472" d="M78 -20v133l870 405l-870 408v133l1036 -488v-104z" />
<glyph unicode="?" horiz-adv-x="839" vert-adv-y="1472" d="M102 1260q174 90 340 90t265 -86q92 -80 92 -205q0 -96 -62 -182q-29 -41 -119 -125q-109 -100 -145 -154q-27 -41 -27 -123v-106h-139v59q0 162 21 213q20 57 149 180q86 80 113 121q35 57 35 111q0 84 -68 135q-53 37 -131 37q-113 0 -281 -97zM258 100q0 55 37 88 q33 33 86 33q51 0 84 -33q35 -33 35 -88q0 -53 -35 -88q-33 -33 -86 -32q-51 0 -84 32q-37 37 -37 88z" />
<glyph unicode="@" horiz-adv-x="1712" vert-adv-y="1472" d="M135 709q0 291 189 491q104 113 247 174q145 63 312 64q193 0 372 -88q176 -88 261 -250q63 -125 63 -283q0 -233 -127 -373q-123 -135 -270 -135q-84 0 -127 64q-25 39 -25 82q-109 -145 -268 -146q-129 0 -203 76q-82 82 -82 211q0 127 72 248q143 240 412 239 q127 0 260 -45l-72 -450q-10 -72 -10 -92q0 -41 22 -60q20 -16 45 -16q57 0 119 55q68 61 105 174q31 88 30 180q0 217 -162 353q-170 143 -413 143q-283 0 -467 -199q-164 -176 -164 -413q0 -176 92 -330q84 -139 229 -215q145 -78 312 -78q133 0 291 68l43 -103 q-176 -76 -359 -75q-295 0 -508 206q-219 214 -219 523zM629 612q0 -78 37 -133q39 -59 122 -59q100 0 185 90q29 33 37 61q2 6 10 54l55 340q-61 20 -112 20q-131 0 -230 -108q-104 -118 -104 -265z" />
<glyph unicode="A" horiz-adv-x="1290" vert-adv-y="1472" d="M-66 0v111l144 6l463 1300h207l464 -1300l146 -6v-111h-496v111l176 6l-133 379h-528l-133 -379l176 -6v-111h-486zM426 631h430l-127 373q-47 139 -86 274q-23 -78 -88 -274z" />
<glyph unicode="B" horiz-adv-x="1142" vert-adv-y="1472" d="M29 0v111l164 6v1183l-164 7v110h385q163 0 252 -12q319 -43 319 -354q0 -172 -100 -254q-66 -53 -187 -74q326 -37 326 -346q0 -233 -180 -326q-80 -39 -182 -47q-57 -4 -189 -4h-444zM356 133h74q160 0 221 10q201 31 201 252q0 164 -137 223q-84 37 -285 37h-74v-522z M356 782h74q207 0 277 41q104 61 104 207q0 158 -96 211q-53 29 -150 39q-57 4 -135 4h-74v-502z" />
<glyph unicode="C" horiz-adv-x="1196" vert-adv-y="1472" d="M119 696q0 229 88 404q172 338 559 338q150 0 344 -64v-317h-145l-17 215q-96 31 -186 31q-150 0 -260 -86q-104 -80 -164 -248q-45 -135 -45 -273q0 -170 61 -311q70 -156 203 -223q94 -47 213 -47q156 0 330 75l41 -131q-197 -80 -373 -79q-286 0 -461 190 q-188 204 -188 526z" />
<glyph unicode="D" horiz-adv-x="1359" vert-adv-y="1472" d="M29 0v111l164 6v1183l-164 7v110h481q166 0 274 -18q236 -43 353 -240q104 -178 104 -442q0 -258 -96 -430q-119 -215 -369 -264q-119 -23 -289 -23h-458zM356 135h144q256 0 377 90q94 68 147 211q43 113 43 271q0 231 -92 389q-88 147 -260 174q-77 12 -240 12h-119 v-1147z" />
<glyph unicode="E" horiz-adv-x="1118" vert-adv-y="1472" d="M29 0v111l164 6v1183l-164 7v110h932v-360h-146l-16 225h-443v-496h404v-135h-404v-516h473l19 225h143v-360h-962z" />
<glyph unicode="F" horiz-adv-x="1081" vert-adv-y="1472" d="M29 0v111l164 6v1183l-164 7v110h936v-360h-146l-16 225h-447v-496h437v-135h-437v-534l164 -6v-111h-491z" />
<glyph unicode="G" horiz-adv-x="1394" vert-adv-y="1472" d="M119 690q0 350 200 557q184 190 478 191q207 0 417 -72v-309h-145l-14 207q-152 39 -248 39q-172 0 -279 -72q-115 -76 -174 -223q-61 -147 -61 -316q0 -293 168 -452q131 -125 340 -125q123 0 250 45v436l-189 6v111h506v-111l-154 -6v-535q-100 -39 -210 -59 q-123 -23 -220 -22q-287 0 -465 178q-200 200 -200 532z" />
<glyph unicode="H" horiz-adv-x="1394" vert-adv-y="1472" d="M29 0v111l164 6v1183l-164 7v110h491v-110l-164 -7v-507h682v507l-164 7v110h492v-110l-164 -7v-1183l164 -6v-111h-492v111l164 6v540h-682v-540l164 -6v-111h-491z" />
<glyph unicode="I" horiz-adv-x="548" vert-adv-y="1472" d="M29 0v111l164 6v1183l-164 7v110h491v-110l-164 -7v-1183l164 -6v-111h-491z" />
<glyph unicode="J" horiz-adv-x="757" vert-adv-y="1472" d="M-4 20l14 136q94 -41 193 -41q147 0 184 100q27 76 27 320v765l-185 7v110h500v-110l-151 -7v-837q0 -164 -15 -234q-53 -250 -346 -249q-110 -1 -221 40z" />
<glyph unicode="K" horiz-adv-x="1202" vert-adv-y="1472" d="M29 0v111l164 6v1183l-164 7v110h491v-110l-164 -7v-561l514 561l-149 7v110h471v-110l-121 -7l-514 -559l526 -624l134 -6v-111h-502v111l155 6l-514 614v-614l164 -6v-111h-491z" />
<glyph unicode="L" horiz-adv-x="1007" vert-adv-y="1472" d="M29 0v111l164 6v1183l-164 7v110h508v-110l-181 -7v-1165h473l19 225h143v-360h-962z" />
<glyph unicode="M" horiz-adv-x="1759" vert-adv-y="1472" d="M29 0v111l164 6v1183l-164 7v110h391l401 -1073q68 -193 70 -197l67 197l392 1073h383v-110l-164 -7v-1183l164 -6v-111h-480v111l152 6v1063q-63 -199 -121 -363l-305 -817h-191l-313 809q-61 168 -127 371v-1063l152 -6v-111h-471z" />
<glyph unicode="N" horiz-adv-x="1429" vert-adv-y="1472" d="M29 0v111l164 6v1183l-164 7v110h354l545 -903l116 -207l41 -74q-4 115 -4 209v858l-163 7v110h483v-110l-164 -7v-1300h-190l-551 911q-84 137 -152 271q4 -139 4 -267v-798l164 -6v-111h-483z" />
<glyph unicode="O" horiz-adv-x="1490" vert-adv-y="1472" d="M119 709q0 197 74 362q164 367 561 367q295 0 456 -217q162 -215 162 -512q0 -197 -74 -363q-164 -367 -553 -366q-299 0 -464 217q-162 215 -162 512zM293 709q0 -289 131 -447q123 -147 321 -147q219 0 342 176q111 157 111 418q0 287 -131 444q-125 150 -328 150 q-213 0 -336 -177q-110 -156 -110 -417z" />
<glyph unicode="P" horiz-adv-x="1058" vert-adv-y="1472" d="M29 0v111l164 6v1183l-164 7v110h438q143 0 238 -20q150 -31 227 -146q70 -100 69 -247q0 -151 -79 -252q-80 -98 -230 -131q-102 -23 -243 -23h-93v-481l189 -6v-111h-516zM356 733h68q209 0 289 41q115 57 114 230q0 96 -41 159q-49 83 -153 105q-72 14 -182 14h-95 v-549z" />
<glyph unicode="Q" horiz-adv-x="1490" vert-adv-y="1472" d="M119 709q0 197 74 362q164 367 552 367q299 0 465 -217q162 -215 162 -512q0 -199 -74 -365q-88 -197 -235 -285q-61 -37 -137 -57q139 -133 311 -254l-86 -98q-205 127 -426 330q-218 9 -356 122q-121 100 -193 283q-57 148 -57 324zM293 709q0 -289 131 -447 q123 -147 321 -147q219 0 342 176q111 157 111 418q0 287 -131 444q-125 150 -328 150q-213 0 -336 -177q-110 -156 -110 -417z" />
<glyph unicode="R" horiz-adv-x="1116" vert-adv-y="1472" d="M29 0v111l164 6v1183l-164 7v110h467q225 0 331 -63q166 -98 166 -310q0 -174 -121 -276q-68 -55 -180 -80q92 -27 133 -88q31 -45 82 -170l127 -313l140 -6v-111h-267l-149 354q-47 109 -74 156q-51 88 -133 106q-51 12 -145 13h-50v-512l164 -6v-111h-491zM356 764h76 q166 0 254 41q133 61 133 223q0 154 -114 213q-78 41 -248 41h-101v-518z" />
<glyph unicode="S" horiz-adv-x="1124" vert-adv-y="1472" d="M119 1044q0 188 127 293q125 100 334 101q170 0 372 -74v-307h-143l-14 192q-111 53 -220 54q-117 0 -198 -54q-88 -59 -88 -182q0 -90 51 -141q43 -43 98 -68q74 -33 140 -59q160 -61 233 -101q119 -63 162 -145q35 -70 35 -168q0 -195 -140 -301q-135 -104 -346 -104 q-199 0 -397 86v294h145l17 -188q117 -57 250 -57q129 0 219 71q82 63 82 181q0 98 -68 153q-45 37 -108 64l-138 55q-172 68 -221 94q-109 59 -153 156q-31 67 -31 155z" />
<glyph unicode="T" horiz-adv-x="1124" vert-adv-y="1472" d="M8 1057v360h1108v-360h-143l-19 225h-313v-1165l225 -6v-111h-614v111l225 6v1165h-307l-18 -225h-144z" />
<glyph unicode="U" horiz-adv-x="1376" vert-adv-y="1472" d="M16 1307v110h492v-110l-164 -7v-743q0 -139 18 -211q37 -141 142 -194q71 -37 184 -37q206 0 289 123q66 100 65 288v774l-163 7v110h483v-110l-164 -7v-675q0 -246 -16 -314q-37 -172 -185 -260q-121 -72 -309 -71q-317 0 -442 204q-55 90 -62 246q-4 102 -4 195v675z " />
<glyph unicode="V" horiz-adv-x="1232" vert-adv-y="1472" d="M-84 1307v110h494v-110l-174 -7l290 -854q61 -176 97 -303l102 324l289 833l-174 7v110h477v-110l-139 -7l-455 -1300h-213l-453 1300z" />
<glyph unicode="W" horiz-adv-x="1775" vert-adv-y="1472" d="M-37 1307v110h473v-110l-162 -7l179 -841q39 -182 57 -303q23 135 61 305l215 956h207l219 -950q37 -160 62 -301q20 129 57 297l185 837l-162 7v110h458v-110l-141 -7l-293 -1300h-211l-217 946q-35 152 -63 307q-16 -102 -64 -309l-217 -944h-211l-291 1300z" />
<glyph unicode="X" horiz-adv-x="1275" vert-adv-y="1472" d="M-23 0v111l132 6l423 620l-374 563l-142 7v110h486v-110l-154 -7l299 -444l295 444l-151 7v110h473v-110l-142 -7l-385 -579l404 -604l145 -6v-111h-491v111l151 6l-321 483l-328 -483l166 -6v-111h-486z" />
<glyph unicode="Y" horiz-adv-x="1161" vert-adv-y="1472" d="M-59 1307v110h489v-110l-162 -7l224 -354q66 -106 96 -166q35 63 100 170l217 350l-162 7v110h480v-110l-138 -7l-421 -661v-522l180 -6v-111h-525v111l181 6v522l-422 661z" />
<glyph unicode="Z" horiz-adv-x="1193" vert-adv-y="1472" d="M86 0v135l803 1147h-617l-16 -225h-145v360h964v-135l-799 -1147h660l16 225h146v-360h-1012z" />
<glyph unicode="[" horiz-adv-x="735" vert-adv-y="1472" d="M229 -317v1859h340v-125h-184v-1610h184v-124h-340z" />
<glyph unicode="\" horiz-adv-x="544" vert-adv-y="1472" d="M61 1458h136l286 -1499h-135z" />
<glyph unicode="]" horiz-adv-x="735" vert-adv-y="1472" d="M168 -193h184v1610h-184v125h340v-1859h-340v124z" />
<glyph unicode="^" vert-adv-y="1472" d="M70 520l471 897h98l471 -897h-129l-391 750l-389 -750h-131z" />
<glyph unicode="_" horiz-adv-x="1024" vert-adv-y="1472" d="M-33 -178h1090v-125h-1090v125z" />
<glyph unicode="`" horiz-adv-x="1024" vert-adv-y="1472" d="M256 1497h199l250 -299h-150z" />
<glyph unicode="a" horiz-adv-x="1058" vert-adv-y="1472" d="M82 287q0 205 172 291q100 51 299 51q12 0 152 -4v28q0 111 -29 172q-53 109 -207 109q-125 0 -268 -90l-68 110q162 104 352 105q238 0 324 -141q41 -70 47 -193q4 -57 4 -127v-481l150 -6v-111h-287l-6 121q-45 -49 -103 -86q-90 -55 -208 -55q-162 0 -248 92 q-76 78 -76 215zM246 291q0 -86 49 -135q51 -51 139 -52q163 0 271 160v242q-74 4 -117 4q-166 0 -244 -43q-98 -57 -98 -176z" />
<glyph unicode="b" horiz-adv-x="1169" vert-adv-y="1472" d="M49 0v111l150 6v1263l-150 6v111l305 10v-612q121 164 308 164q178 0 296 -156q111 -147 111 -377q0 -256 -129 -413q-111 -133 -287 -133q-127 0 -211 69q-39 31 -100 109v-158h-293zM354 299q41 -63 80 -106q84 -88 195 -89q145 0 215 132q61 109 61 286q0 184 -74 301 q-70 111 -200 111q-174 0 -277 -195v-440z" />
<glyph unicode="c" horiz-adv-x="985" vert-adv-y="1472" d="M102 510q0 272 142 420q123 129 338 129q156 0 305 -55v-283h-146l-16 188q-80 25 -152 25q-156 0 -231 -111q-76 -106 -76 -295q0 -201 90 -315q84 -109 234 -109q135 0 264 93l59 -121q-150 -96 -325 -96q-227 0 -352 137q-134 145 -134 393z" />
<glyph unicode="d" horiz-adv-x="1175" vert-adv-y="1472" d="M102 526q0 252 127 400q115 133 283 133q182 0 303 -164v485l-147 6v111l305 10v-1390l149 -6v-111h-293v158q-57 -72 -100 -109q-82 -70 -211 -69q-188 0 -303 155q-113 151 -113 391zM266 522q0 -174 64 -286q70 -131 215 -132q106 0 190 89q39 43 80 106v440 q-102 195 -272 195q-132 0 -203 -111q-74 -117 -74 -301z" />
<glyph unicode="e" horiz-adv-x="1075" vert-adv-y="1472" d="M100 518q0 287 156 432q119 109 297 109q274 0 371 -228q55 -135 57 -354h-717q18 -178 80 -260q86 -113 254 -113q143 0 285 99l59 -121q-164 -102 -346 -102q-248 0 -381 161q-115 139 -115 377zM268 602h547q-2 113 -41 193q-68 139 -227 139q-156 0 -232 -137 q-45 -82 -47 -195z" />
<glyph unicode="f" horiz-adv-x="710" vert-adv-y="1472" d="M66 913v125h167v99q0 184 52 266q72 115 237 115q72 0 146 -21l-15 -135q-55 31 -118 31q-100 0 -127 -95q-18 -55 -19 -174v-86h246v-125h-246v-796l191 -6v-111h-506v111l159 6v796h-167z" />
<glyph unicode="g" horiz-adv-x="1175" vert-adv-y="1472" d="M98 530q0 256 125 402q109 127 281 127q197 0 321 -180v170l301 -11v-110l-151 -6v-811q0 -172 -23 -269q-33 -147 -164 -231q-109 -72 -262 -72q-209 0 -391 113l68 121q158 -109 321 -109q184 0 254 148q39 80 39 284v86q-145 -164 -315 -164q-176 0 -289 140 q-115 139 -115 372zM262 532q0 -156 68 -268q76 -121 213 -121q166 0 274 183v407q-45 84 -92 125q-88 76 -188 76q-139 0 -211 -127q-64 -109 -64 -275z" />
<glyph unicode="h" horiz-adv-x="1245" vert-adv-y="1472" d="M57 0v111l150 6v1263l-150 6v111l305 10v-628q57 57 107 92q119 88 262 88q211 0 283 -168q35 -86 35 -270v-504l149 -6v-111h-455v111l150 6v504q0 141 -27 204q-47 109 -176 109q-168 0 -328 -195v-622l150 -6v-111h-455z" />
<glyph unicode="i" horiz-adv-x="567" vert-adv-y="1472" d="M57 0v111l150 6v805l-150 6v110l305 11v-932l150 -6v-111h-455zM174 1407q0 41 21 68q31 43 92 43q57 0 88 -43q20 -27 20 -68t-20 -68q-31 -43 -90.5 -43t-89.5 43q-21 27 -21 68z" />
<glyph unicode="j" horiz-adv-x="567" vert-adv-y="1472" d="M-41 -449l18 134q45 -14 86 -15q84 0 121 56q31 43 31 141v1055l-174 6v110l330 11v-1069q0 -139 -6 -205q-16 -123 -101 -185q-72 -51 -184 -51q-64 0 -121 12zM182 1407q0 41 21 68q31 43 92 43q57 0 88 -43q20 -27 20 -68t-20 -68q-31 -43 -90.5 -43t-89.5 43 q-21 27 -21 68z" />
<glyph unicode="k" horiz-adv-x="1048" vert-adv-y="1472" d="M57 0v111l150 6v1263l-150 6v111l305 10v-917l353 332l-135 6v110h432v-110l-117 -6l-369 -344l385 -461l125 -6v-111h-409v111l94 4l-359 432v-430l150 -6v-111h-455z" />
<glyph unicode="l" horiz-adv-x="567" vert-adv-y="1472" d="M57 0v111l150 6v1263l-150 6v111l305 10v-1390l150 -6v-111h-455z" />
<glyph unicode="m" horiz-adv-x="1837" vert-adv-y="1472" d="M57 0v111l150 6v805l-150 6v110l301 11v-175q66 66 105 97q109 88 246 88q141 0 219 -96q37 -47 53 -109q68 78 121 117q113 88 246 88q195 0 260 -168q33 -80 32 -270v-504l150 -6v-111h-455v111l150 6v504q0 143 -23 204q-41 109 -157 109q-152 0 -304 -195v-622 l150 -6v-111h-455v111l150 6v504q0 143 -23 204q-41 109 -157 109q-152 0 -304 -195v-622l150 -6v-111h-455z" />
<glyph unicode="n" horiz-adv-x="1245" vert-adv-y="1472" d="M57 0v111l150 6v805l-150 6v110l301 11v-175q70 66 111 97q115 88 262 88q211 0 283 -168q35 -86 35 -270v-504l149 -6v-111h-455v111l150 6v504q0 141 -27 204q-47 109 -176 109q-168 0 -328 -195v-622l150 -6v-111h-455z" />
<glyph unicode="o" horiz-adv-x="1159" vert-adv-y="1472" d="M102 520q0 240 134 389q135 150 350 150q221 0 356 -172q117 -147 117 -369q0 -240 -133 -389q-135 -150 -346 -149q-227 0 -363 172q-115 145 -115 368zM266 518q0 -168 72 -280q86 -133 242 -134q168 0 254 154q61 106 61 262q0 166 -74 281q-86 133 -246 133 q-94 0 -172 -60q-137 -106 -137 -356z" />
<glyph unicode="p" vert-adv-y="1472" d="M57 -330l150 6v1246l-150 6v110l293 11v-168q57 72 101 104q102 74 217 74q180 0 299 -156q111 -147 110 -377q0 -254 -131 -413q-111 -133 -287 -133q-125 0 -208 69q-47 39 -89 92v-465l170 -6v-110h-475v110zM362 299q47 -74 80 -106q84 -88 193 -89q145 0 215 132 q63 113 63 286q0 184 -73 301q-71 111 -203 111q-164 0 -275 -191v-444z" />
<glyph unicode="q" vert-adv-y="1472" d="M102 526q0 252 127 400q115 133 283 133q115 0 215 -74q49 -35 102 -104v168l293 -11v-110l-149 -6v-1246l149 -6v-110h-487v110l180 6v465q-46 -58 -86 -92q-84 -70 -211 -69q-188 0 -303 155q-113 151 -113 391zM266 522q0 -174 64 -286q70 -131 213 -132q109 0 192 89 q33 33 80 106v444q-111 190 -272 191q-132 0 -203 -111q-74 -117 -74 -301z" />
<glyph unicode="r" horiz-adv-x="753" vert-adv-y="1472" d="M57 0v111l150 6v805l-150 6v110l293 11v-179q109 188 283 189q33 0 80 -10l-8 -138q-27 8 -64 9q-188 0 -279 -244v-559l170 -6v-111h-475z" />
<glyph unicode="s" horiz-adv-x="942" vert-adv-y="1472" d="M104 754q0 160 119 239q102 66 262 66q154 0 316 -66v-272h-146l-16 182q-82 31 -152 31q-86 0 -147 -33q-78 -41 -78 -133q0 -80 68 -117q53 -29 188 -65q143 -43 201 -70q131 -70 131 -225q0 -170 -125 -246q-109 -66 -279 -65q-176 0 -333 73v269h143l18 -179 q88 -39 183 -39q92 0 157 35q76 39 76 135q0 74 -49 109q-31 22 -80 37l-121 35q-178 55 -243 100q-93 64 -93 199z" />
<glyph unicode="t" horiz-adv-x="722" vert-adv-y="1472" d="M66 913v125h167v228l156 32v-260h246v-125h-246v-567q0 -127 23 -176q31 -66 118 -66q51 0 119 31l15 -123q-94 -33 -168 -32q-156 0 -217 96q-45 70 -46 239v598h-167z" />
<glyph unicode="u" horiz-adv-x="1226" vert-adv-y="1472" d="M49 928v110l305 11v-631q0 -147 25 -205q47 -109 174 -109q164 0 319 181v637l-149 6v110l305 11v-932l150 -6v-111h-291v164q-57 -57 -113 -96q-123 -88 -264 -88q-209 0 -277 167q-35 86 -34 279v496z" />
<glyph unicode="v" horiz-adv-x="1038" vert-adv-y="1472" d="M-29 928v110h449v-110l-166 -6l213 -586q43 -123 65 -197q27 88 64 191l209 592l-166 6v110h428v-110l-119 -6l-327 -922h-201l-330 922z" />
<glyph unicode="w" horiz-adv-x="1628" vert-adv-y="1472" d="M-20 928v110h442v-110l-166 -6l141 -535l31 -115l35 -139l69 262l183 643h203l186 -628l78 -277l26 109q0 2 15.5 60l25.5 97l142 523l-162 6v110h422v-110l-119 -6l-258 -922h-197l-200 664l-70 245l-72 -260l-184 -649h-201l-252 922z" />
<glyph unicode="x" horiz-adv-x="1067" vert-adv-y="1472" d="M16 0v111l107 6l311 432l-266 373l-113 6v110h414v-110l-121 -6l195 -269l192 269l-119 6v110h398v-110l-113 -6l-278 -381l307 -424l106 -6v-111h-432v111l141 4l-229 319l-221 -317l141 -6v-111h-420z" />
<glyph unicode="y" horiz-adv-x="1015" vert-adv-y="1472" d="M-41 928v110h451v-110l-166 -6l192 -504q51 -135 84 -238l88 244l187 498l-164 6v110h428v-110l-119 -6l-379 -1010q-66 -180 -139 -270q-82 -102 -240 -103q-78 0 -153 21l26 127q68 -23 117 -23q86 0 135 51q74 74 133 271l-362 936z" />
<glyph unicode="z" horiz-adv-x="1011" vert-adv-y="1472" d="M78 0v117l624 796h-436l-16 -192h-146v317h789v-125l-623 -788h486l16 197h146v-322h-840z" />
<glyph unicode="{" horiz-adv-x="735" vert-adv-y="1472" d="M117 553v119q109 6 145 55q33 41 33 186v285q0 90 10 156q18 119 109 162q59 27 168 26h71v-119h-71q-82 0 -109 -43q-23 -45 -22 -163v-338q0 -101 -13 -148q-31 -96 -157 -119q84 -14 129 -65q31 -41 36 -107q4 -41 5 -96v-338q0 -117 22 -162q27 -43 109 -43h71v-118 h-71q-109 0 -168 26q-90 43 -109 162q-10 66 -10 156v284q0 152 -39 193q-39 43 -139 49z" />
<glyph unicode="|" horiz-adv-x="589" vert-adv-y="1472" d="M213 -440v1857h164v-1857h-164z" />
<glyph unicode="}" horiz-adv-x="735" vert-adv-y="1472" d="M84 -199h72q82 0 108 41q23 39 23 164v338q0 101 12 148q31 98 160 120q-84 14 -129 66q-33 43 -39 106q-4 41 -4 95v338q0 113 -19 155q-29 51 -112 51h-72v119h72q111 0 170 -26q88 -43 106 -162q10 -66 10 -156v-285q0 -152 39 -192q39 -43 140 -49v-119 q-106 -6 -146 -57q-33 -41 -33 -185v-284q0 -90 -10 -156q-18 -119 -106 -162q-59 -27 -170 -26h-72v118z" />
<glyph unicode="~" vert-adv-y="1472" d="M72 465q57 76 108 125q89 80 191 80q63 0 127 -31q29 -14 112 -61l101 -58q47 -20 88 -20q76 0 145 69q23 23 74 82l90 -78q-57 -78 -107 -122q-94 -84 -192 -84q-88 0 -238 92q-74 45 -102 57q-47 20 -96 21q-70 0 -135 -66q-29 -29 -74 -84z" />
<glyph vert-adv-y="1472" d="M8 528l37 111h180q-2 25 -2 61q0 45 2 78h-217l37 111h197q43 219 168 362q162 186 424 187q162 0 329 -86l-47 -129q-156 84 -287 84q-324 0 -421 -418h593l-38 -111h-570q-4 -49 -4 -98q0 -29 2 -41h522l-36 -111h-476q66 -418 420 -417q150 0 318 75l41 -127 q-190 -80 -365 -79q-307 0 -459 208q-100 137 -120 340h-228z" />
<glyph unicode="&#xa0;" horiz-adv-x="512" vert-adv-y="1472" />
<glyph unicode="&#xa1;" horiz-adv-x="634" vert-adv-y="1472" d="M238 938q0 53 36 88q33 33 86 33q51 0 84 -33q35 -33 35 -88q0 -53 -35 -88q-33 -33 -86 -33q-51 0 -84 33q-36 37 -36 88zM274 -287l19 951h131l18 -951h-168z" />
<glyph unicode="&#xa2;" vert-adv-y="1472" d="M184 887q0 213 92 354q111 169 338 191v153h103v-153q162 -12 301 -72v-277h-146l-14 185q-80 29 -141 37v-824q133 16 248 90l59 -120q-129 -82 -307 -95v-149h-103v149q-133 12 -231 78q-199 140 -199 453zM348 901q0 -246 127 -354q57 -49 139 -64v824 q-266 -39 -266 -406z" />
<glyph unicode="&#xa3;" vert-adv-y="1472" d="M106 0v131h148q31 45 45 113q12 72 12 272v158h-184v119h184v141q0 152 15 215q37 156 174 231q104 57 254 58q160 0 321 -62v-319h-143l-19 221q-78 25 -155 25q-176 0 -242 -117q-41 -70 -41 -271v-122h350v-119h-350v-158q0 -225 -12 -291q-10 -49 -39 -94h489l19 229 h143v-360h-969z" />
<glyph unicode="&#xa4;" vert-adv-y="1472" d="M70 276l123 123q-100 137 -101 318q0 182 101 315l-123 123l80 82l120 -121q127 106 319.5 106.5t319.5 -106.5l121 121l82 -82l-123 -123q100 -133 101 -315q0 -184 -101 -318l123 -123l-82 -81l-121 120q-127 -106 -319.5 -106t-319.5 106l-120 -120zM215 717 q0 -182 107 -291q104 -109 270 -109q162 0 266 109q109 113 109 289q0 182 -109 291q-61 61 -121 84q-66 25 -151 24q-160 0 -264 -108q-107 -109 -107 -289z" />
<glyph unicode="&#xa5;" vert-adv-y="1472" d="M-63 1307v110h491v-110l-149 -7l319 -507l320 507l-166 7v110h491v-110l-149 -7l-355 -557h254v-104h-307l-12 -29v-112h319v-105h-319v-276l160 -6v-111h-492v111l166 6v276h-320v105h320v112l-14 29h-306v104h254l-356 557z" />
<glyph unicode="&#xa6;" horiz-adv-x="589" vert-adv-y="1472" d="M213 0v557h164v-557h-164zM213 860v557h164v-557h-164z" />
<glyph unicode="&#xa7;" vert-adv-y="1472" d="M207 559q0 156 178 291q-65 43 -92 80q-51 70 -51 178q0 170 120 256q100 74 269 74q147 0 307 -72v-289h-145l-17 193q-82 33 -147 33q-96 0 -156 -50q-57 -49 -57 -133q0 -82 63 -131q47 -33 92 -53l121 -51q160 -68 213 -121q72 -68 72 -178q0 -158 -172 -293 q57 -33 86 -72q59 -72 59 -194q0 -162 -102 -252q-106 -94 -307 -94q-178 0 -326 79v301h145l15 -204q53 -41 162 -41q115 0 178 53q61 49 61 139q0 88 -55 135q-40 34 -98 62l-115 51q-157 68 -221 123q-80 71 -80 180zM371 602q0 -72 59 -119q68 -52 277 -135 q104 106 104 195q0 94 -106 155q-20 10 -222 97q-112 -89 -112 -193z" />
<glyph unicode="&#xa8;" horiz-adv-x="1024" vert-adv-y="1472" d="M211 1350q0 39 22 67q31 37 86 37q49 0 82 -39q23 -29 23 -67.5t-23 -67.5q-33 -39 -84 -39q-57 0 -84 39q-22 29 -22 70zM600 1350q0 39 23 67q31 37 86 37q49 0 82 -39q23 -29 22.5 -67.5t-22.5 -67.5q-33 -39 -84 -39q-57 0 -84 39q-23 29 -23 70z" />
<glyph unicode="&#xa9;" horiz-adv-x="1636" vert-adv-y="1472" d="M90 707q0 223 107 399q102 164 272 252q154 80 360 80q305 0 512 -207q207 -211 207 -522.5t-207 -522.5q-207 -207 -522 -206.5t-522 206.5q-207 212 -207 521zM168 709q0 -274 174 -465q186 -203 477 -203t477 203q174 190 174 463q0 283 -174 469q-188 201 -485 200 q-283 0 -469 -200q-174 -191 -174 -467zM479 705q0 197 133 305q96 78 244 77q104 0 217 -47v-198h-100l-12 131q-43 20 -105 20q-123 0 -186 -84q-63 -82 -64 -200q0 -123 64 -199q72 -86 204 -86q90 0 189 53l35 -90q-102 -57 -240 -57q-170 0 -268 96q-111 107 -111 279z " />
<glyph unicode="&#xaa;" horiz-adv-x="735" vert-adv-y="1472" d="M113 1006q0 190 270 190q41 0 80 -2v25q0 51 -21 81q-27 39 -94 39q-70 0 -164 -53l-37 84q113 59 213 60q151 0 197 -93q18 -33 23 -102q0 -2 1 -26.5t1 -47.5v-233l77 -4v-80h-190l-4 57q-70 -70 -166 -70q-88 0 -141 54q-45 45 -45 121zM233 1010q0 -37 23 -60 q25 -25 68 -24q82 0 139 75v109q-18 2 -51 2q-179 0 -179 -102z" />
<glyph unicode="&#xab;" horiz-adv-x="980" vert-adv-y="1472" d="M68 510l319 426l107 -74l-242 -352l242 -352l-107 -72zM473 510l318 426l106 -74l-240 -352l240 -352l-106 -72z" />
<glyph unicode="&#xac;" vert-adv-y="1472" d="M72 655v123h993v-577h-139v454h-854z" />
<glyph unicode="&#xad;" horiz-adv-x="636" vert-adv-y="1472" d="M82 510v125h473v-125h-473z" />
<glyph unicode="&#xae;" horiz-adv-x="1228" vert-adv-y="1472" d="M84 1012q0 244 160 391q154 141 377 141q215 0 364 -141q160 -150 160 -389.5t-160 -388.5q-150 -141 -371 -141.5t-370 141.5q-160 150 -160 387zM162 1014q0 -207 129 -338q125 -131 323.5 -131t323.5 131q63 63 98 160q31 86 31 176q0 205 -129 340q-125 131 -330 131 q-193 0 -317 -131q-129 -132 -129 -338zM360 735v62l82 6v422l-82 6v61h254q94 0 148 -26q70 -37 69 -123q0 -98 -110 -133q37 -23 61 -82l60 -125l59 -6v-62h-143l-68 148q-33 68 -53 84q-18 12 -72 16h-16v-180l80 -6v-62h-269zM549 1051h20q152 0 152 86q0 88 -137 88 h-35v-174z" />
<glyph unicode="&#xaf;" horiz-adv-x="1024" vert-adv-y="1472" d="M-33 1595v125h1090v-125h-1090z" />
<glyph unicode="&#xb0;" horiz-adv-x="679" vert-adv-y="1472" d="M41 1143q0 133 86 213q84 82 217 82q129 0 211 -82q84 -82 84 -213q0 -129 -84 -211q-82 -82 -215 -82q-131 0 -213 82q-86 84 -86 211zM129 1143q0 -98 59.5 -157.5t151.5 -59.5t151.5 59t59.5 158q0 102 -59 160q-63 59 -156 59q-88 0 -147.5 -59.5t-59.5 -159.5z" />
<glyph unicode="&#xb1;" vert-adv-y="1472" d="M72 0v123h1036v-123h-1036zM72 616v123h456v299h123v-299h457v-123h-457v-297h-123v297h-456z" />
<glyph unicode="&#xb2;" horiz-adv-x="735" vert-adv-y="1472" d="M96 639v94q174 147 264 248q133 145 134 242q0 49 -35 77q-41 35 -109 35q-80 0 -200 -69l-37 96q135 68 247 68q106 0 179 -48q82 -51 82 -151q0 -92 -62 -182q-100 -143 -303 -316h373v-94h-533z" />
<glyph unicode="&#xb3;" horiz-adv-x="735" vert-adv-y="1472" d="M92 666l27 98q109 -39 196 -39q72 0 117 33q57 43 57 108q0 70 -67 107q-61 33 -156 33q-31 0 -67 -7v99q57 -4 67 -4q86 0 142 30q72 39 71 105q0 49 -39 76q-40 31 -104 30q-80 0 -191 -43l-26 97q117 41 229 41q123 0 193 -56q66 -49 65 -137q0 -133 -149 -184 q160 -43 159 -195q0 -113 -92 -176q-80 -55 -198 -55q-103 0 -234 39z" />
<glyph unicode="&#xb4;" horiz-adv-x="1024" vert-adv-y="1472" d="M340 1198l250 299h198l-299 -299h-149z" />
<glyph unicode="&#xb5;" vert-adv-y="1472" d="M20 928v110l306 11v-590q0 -117 8 -160q18 -98 77.5 -145.5t145.5 -47.5q98 0 186 74q49 37 105 111v631l-152 6v110l308 11v-932l145 -6v-111h-291v162q-158 -182 -348 -182q-121 0 -184 98v-518h-156v1362z" />
<glyph unicode="&#xb6;" horiz-adv-x="1351" vert-adv-y="1472" d="M102 1020q0 137 78 246q78 106 215 137q59 14 203 14h651v-110l-164 -7v-1542h-155v1524h-254v-1524h-156v867q-154 0 -256 71q-80 57 -121 139.5t-41 184.5z" />
<glyph unicode="&#xb7;" horiz-adv-x="589" vert-adv-y="1472" d="M174 573q0 53 37 89q33 33 86 32q51 0 84 -32q35 -33 35 -89q0 -53 -35 -88q-33 -33 -86 -32q-51 0 -84 32q-37 37 -37 88z" />
<glyph unicode="&#xb8;" horiz-adv-x="1024" vert-adv-y="1472" d="M287 -371l241 301h187l-277 -301h-151z" />
<glyph unicode="&#xb9;" horiz-adv-x="735" vert-adv-y="1472" d="M139 1284l221 133h107v-692l119 -6v-80h-359v80l121 6v571l-162 -96z" />
<glyph unicode="&#xba;" horiz-adv-x="735" vert-adv-y="1472" d="M98 1133q0 137 72 215q76 82 203 82t202 -95q63 -76 64 -205q0 -137 -74 -217q-74 -82 -196 -82q-133 0 -207 95q-64 78 -64 207zM219 1130q0 -84 37 -139q41 -66 113 -65q76 0 118 78q31 55 31 129q0 82 -37 137q-43 66 -114 65q-74 0 -117 -75q-31 -52 -31 -130z" />
<glyph unicode="&#xbb;" horiz-adv-x="980" vert-adv-y="1472" d="M86 158l240 352l-240 352l107 74l319 -426l-319 -424zM492 158l239 352l-239 352l106 74l317 -426l-317 -424z" />
<glyph unicode="&#xbc;" horiz-adv-x="1542" vert-adv-y="1472" d="M90 1284l219 133h107v-692l121 -6v-80h-359v80l121 6v571l-164 -96zM397 -41l559 1499h121l-559 -1499h-121zM829 201v110l345 467h137v-483h121v-94h-121v-201h-125v201h-357zM944 295h246v340z" />
<glyph unicode="&#xbd;" horiz-adv-x="1542" vert-adv-y="1472" d="M80 1284l219 133h107v-692l120 -6v-80h-358v80l121 6v571l-162 -96zM352 -41l559 1499h121l-559 -1499h-121zM862 0v94q195 168 266 248q131 143 132 242q0 49 -35 78q-41 35 -109 34q-80 0 -201 -69l-36 96q135 68 247 68q106 0 179 -48q82 -51 81 -151q0 -92 -61 -182 q-100 -143 -303 -316h373v-94h-533z" />
<glyph unicode="&#xbe;" horiz-adv-x="1542" vert-adv-y="1472" d="M66 666l26 98q109 -39 197 -39q72 0 117 33q57 43 57 108q0 68 -70 107q-61 33 -153 33q-33 0 -70 -7v99q57 -4 70 -4q86 0 141 30q72 39 72 105q0 49 -39 76q-41 31 -107 30q-78 0 -188 -43l-27 97q117 41 230 41q121 0 192 -56q66 -49 66 -137q0 -133 -150 -184 q160 -43 160 -195q0 -113 -92 -176q-80 -55 -199 -55q-102 0 -233 39zM453 -41l559 1499h121l-560 -1499h-120zM854 201v110l346 467h135v-483h123v-94h-123v-201h-123v201h-358zM971 295h246v340z" />
<glyph unicode="&#xbf;" horiz-adv-x="839" vert-adv-y="1472" d="M43 -18q0 96 59 180q33 47 119 127q113 106 146 153q27 41 26 121v107h139v-60q-4 -170 -20 -213q-20 -57 -150 -180q-82 -76 -110 -121q-37 -59 -37 -110q0 -82 68 -133q55 -39 133 -39q111 0 278 96l43 -131q-174 -90 -340 -90t-264 86q-90 78 -90 207zM340 938 q0 53 37 88q33 33 86 33q51 0 84 -33q35 -33 35 -88q0 -53 -35 -88q-33 -33 -86 -33q-51 0 -84 33q-37 37 -37 88z" />
<glyph unicode="&#xc0;" horiz-adv-x="1290" vert-adv-y="1472" d="M-66 0v111l144 6l463 1300h207l464 -1300l146 -6v-111h-496v111l176 6l-133 379h-528l-133 -379l176 -6v-111h-486zM426 631h430l-127 373q-47 139 -86 274q-23 -78 -88 -274zM535 1845l250 -299h-150l-299 299h199z" />
<glyph unicode="&#xc1;" horiz-adv-x="1290" vert-adv-y="1472" d="M-66 0v111l144 6l463 1300h207l464 -1300l146 -6v-111h-496v111l176 6l-133 379h-528l-133 -379l176 -6v-111h-486zM426 631h430l-127 373q-47 139 -86 274q-23 -78 -88 -274zM764 1845h198l-299 -299h-149z" />
<glyph unicode="&#xc2;" horiz-adv-x="1290" vert-adv-y="1472" d="M-66 0v111l144 6l463 1300h207l464 -1300l146 -6v-111h-496v111l176 6l-133 379h-528l-133 -379l176 -6v-111h-486zM426 631h430l-127 373q-47 139 -86 274q-23 -78 -88 -274zM645 1747l-150 -201h-149l205 299h188l205 -299h-149z" />
<glyph unicode="&#xc3;" horiz-adv-x="1290" vert-adv-y="1472" d="M-66 0v111l144 6l463 1300h207l464 -1300l146 -6v-111h-496v111l176 6l-133 379h-528l-133 -379l176 -6v-111h-486zM426 631h430l-127 373q-47 139 -86 274q-23 -78 -88 -274zM407 1585h-106q10 78 43 127q57 82 149 82q70 0 183 -43q80 -31 116 -31q45 0 72 31 q16 20 21 55h104q-8 -78 -41 -129q-51 -82 -151 -82q-61 0 -175 41q-86 33 -127 33q-63 0 -88 -84z" />
<glyph unicode="&#xc4;" horiz-adv-x="1290" vert-adv-y="1472" d="M-66 0v111l144 6l463 1300h207l464 -1300l146 -6v-111h-496v111l176 6l-133 379h-528l-133 -379l176 -6v-111h-486zM344 1698q0 39 23 67q31 37 86 37q49 0 82 -39q23 -29 22 -67q0 -41 -22 -70q-31 -37 -82 -37q-55 0 -86 39q-23 29 -23 70zM426 631h430l-127 373 q-47 139 -86 274q-23 -78 -88 -274zM733 1698q0 39 23 67q31 37 86 37q49 0 82 -39q23 -29 22 -67q0 -41 -22 -70q-31 -37 -82 -37q-55 0 -86 39q-23 29 -23 70z" />
<glyph unicode="&#xc5;" horiz-adv-x="1290" vert-adv-y="1472" d="M-66 0v111l144 6l465 1304q-100 61 -101 176q0 90 60 148q57 57 143 57q88 0 146 -57q59 -57 59 -148q0 -117 -102 -178l464 -1302l146 -6v-111h-496v111l176 6l-133 379h-528l-133 -379l176 -6v-111h-486zM426 631h430l-127 375q-51 145 -86 272q-23 -78 -88 -274z M528 1597.5q0 -47.5 27 -79.5q35 -43 90 -43q58 0 92 43q27 33 27 80t-27 79q-33 43 -94 43q-53 0 -88 -43q-27 -32 -27 -79.5z" />
<glyph unicode="&#xc6;" horiz-adv-x="1845" vert-adv-y="1472" d="M-172 0v111l143 6l840 1300h877v-360h-146l-16 225h-443v-496h555v-135h-555v-516h473l17 225h145v-360h-798v401h-576l-180 -284l155 -6v-111h-491zM430 537h490v745h-17z" />
<glyph unicode="&#xc7;" horiz-adv-x="1196" vert-adv-y="1472" d="M119 696q0 229 88 404q172 338 559 338q150 0 344 -64v-317h-145l-17 215q-96 31 -186 31q-150 0 -260 -86q-104 -80 -164 -248q-45 -135 -45 -273q0 -170 61 -311q70 -156 203 -223q94 -47 213 -47q156 0 330 75l41 -131q-197 -80 -373 -79q-286 0 -461 190 q-188 204 -188 526zM397 -371l242 301h186l-274 -301h-154z" />
<glyph unicode="&#xc8;" horiz-adv-x="1118" vert-adv-y="1472" d="M29 0v111l164 6v1183l-164 7v110h932v-360h-146l-16 225h-443v-496h404v-135h-404v-516h473l19 225h143v-360h-962zM502 1845l250 -299h-150l-299 299h199z" />
<glyph unicode="&#xc9;" horiz-adv-x="1118" vert-adv-y="1472" d="M29 0v111l164 6v1183l-164 7v110h932v-360h-146l-16 225h-443v-496h404v-135h-404v-516h473l19 225h143v-360h-962zM660 1845h198l-299 -299h-149z" />
<glyph unicode="&#xca;" horiz-adv-x="1118" vert-adv-y="1472" d="M29 0v111l164 6v1183l-164 7v110h932v-360h-146l-16 225h-443v-496h404v-135h-404v-516h473l19 225h143v-360h-962zM561 1747l-150 -201h-149l205 299h188l205 -299h-149z" />
<glyph unicode="&#xcb;" horiz-adv-x="1118" vert-adv-y="1472" d="M29 0v111l164 6v1183l-164 7v110h932v-360h-146l-16 225h-443v-496h404v-135h-404v-516h473l19 225h143v-360h-962zM366 1802q49 0 82 -39q23 -29 23 -67q0 -41 -23 -70q-29 -37 -84 -37q-57 0 -84 39q-23 29 -22 70q0 39 22 67q31 37 86 37zM756 1802q49 0 82 -39 q23 -29 22 -67q0 -41 -22 -70q-29 -37 -84 -37q-57 0 -84 39q-23 29 -23 70q0 39 23 67q31 37 86 37z" />
<glyph unicode="&#xcc;" horiz-adv-x="548" vert-adv-y="1472" d="M29 0v111l164 6v1183l-164 7v110h491v-110l-164 -7v-1183l164 -6v-111h-491zM217 1845l250 -299h-150l-299 299h199z" />
<glyph unicode="&#xcd;" horiz-adv-x="548" vert-adv-y="1472" d="M29 0v111l164 6v1183l-164 7v110h491v-110l-164 -7v-1183l164 -6v-111h-491zM352 1845h198l-299 -299h-149z" />
<glyph unicode="&#xce;" horiz-adv-x="548" vert-adv-y="1472" d="M29 0v111l164 6v1183l-164 7v110h491v-110l-164 -7v-1183l164 -6v-111h-491zM274 1747l-150 -201h-149l205 299h188l205 -299h-149z" />
<glyph unicode="&#xcf;" horiz-adv-x="548" vert-adv-y="1472" d="M29 0v111l164 6v1183l-164 7v110h491v-110l-164 -7v-1183l164 -6v-111h-491zM81 1802q49 0 82 -39q23 -29 23 -67q0 -41 -23 -70q-29 -37 -84 -37q-57 0 -84 39q-23 29 -22 70q0 39 22 67q31 37 86 37zM471 1802q49 0 82 -39q23 -29 22 -67q0 -41 -22 -70 q-29 -37 -84 -37q-57 0 -84 39q-23 29 -23 70q0 39 23 67q31 37 86 37z" />
<glyph unicode="&#xd0;" horiz-adv-x="1359" vert-adv-y="1472" d="M23 668v106h170v526l-164 7v110h481q166 0 272 -18q238 -43 355 -240q104 -178 104 -442q0 -255 -98 -430q-119 -215 -367 -264q-119 -23 -289 -23h-458v111l164 6v551h-170zM356 135h144q254 0 374 90q98 70 150 211q43 113 43 271q0 236 -92 389q-88 145 -260 174 q-77 12 -240 12h-119v-508h306v-106h-306v-533z" />
<glyph unicode="&#xd1;" horiz-adv-x="1429" vert-adv-y="1472" d="M29 0v111l164 6v1183l-164 7v110h354l545 -903l116 -207l41 -74q-4 115 -4 209v858l-163 7v110h483v-110l-164 -7v-1300h-190l-551 911q-84 137 -152 271q4 -139 4 -267v-798l164 -6v-111h-483zM505 1585h-106q10 78 43 127q57 82 149 82q70 0 183 -43q80 -31 116 -31 q45 0 72 31q16 20 21 55h104q-8 -78 -41 -129q-51 -82 -151 -82q-61 0 -175 41q-86 33 -127 33q-63 0 -88 -84z" />
<glyph unicode="&#xd2;" horiz-adv-x="1490" vert-adv-y="1472" d="M119 709q0 197 74 362q164 367 561 367q295 0 456 -217q162 -215 162 -512q0 -197 -74 -363q-164 -367 -553 -366q-299 0 -464 217q-162 215 -162 512zM293 709q0 -289 131 -447q123 -147 321 -147q219 0 342 176q111 157 111 418q0 287 -131 444q-125 150 -328 150 q-213 0 -336 -177q-110 -156 -110 -417zM688 1845l250 -299h-150l-299 299h199z" />
<glyph unicode="&#xd3;" horiz-adv-x="1490" vert-adv-y="1472" d="M119 709q0 197 74 362q164 367 561 367q295 0 456 -217q162 -215 162 -512q0 -197 -74 -363q-164 -367 -553 -366q-299 0 -464 217q-162 215 -162 512zM293 709q0 -289 131 -447q123 -147 321 -147q219 0 342 176q111 157 111 418q0 287 -131 444q-125 150 -328 150 q-213 0 -336 -177q-110 -156 -110 -417zM823 1845h198l-299 -299h-149z" />
<glyph unicode="&#xd4;" horiz-adv-x="1490" vert-adv-y="1472" d="M119 709q0 197 74 362q164 367 561 367q295 0 456 -217q162 -215 162 -512q0 -197 -74 -363q-164 -367 -553 -366q-299 0 -464 217q-162 215 -162 512zM293 709q0 -289 131 -447q123 -147 321 -147q219 0 342 176q111 157 111 418q0 287 -131 444q-125 150 -328 150 q-213 0 -336 -177q-110 -156 -110 -417zM745 1747l-150 -201h-149l205 299h188l205 -299h-149z" />
<glyph unicode="&#xd5;" horiz-adv-x="1490" vert-adv-y="1472" d="M119 709q0 197 74 362q164 367 561 367q295 0 456 -217q162 -215 162 -512q0 -197 -74 -363q-164 -367 -553 -366q-299 0 -464 217q-162 215 -162 512zM293 709q0 -289 131 -447q123 -147 321 -147q219 0 342 176q111 157 111 418q0 287 -131 444q-125 150 -328 150 q-213 0 -336 -177q-110 -156 -110 -417zM507 1585h-106q10 78 43 127q57 82 149 82q70 0 183 -43q80 -31 116 -31q45 0 72 31q16 20 21 55h104q-8 -78 -41 -129q-51 -82 -151 -82q-61 0 -175 41q-86 33 -127 33q-63 0 -88 -84z" />
<glyph unicode="&#xd6;" horiz-adv-x="1490" vert-adv-y="1472" d="M119 709q0 197 74 362q164 367 561 367q295 0 456 -217q162 -215 162 -512q0 -197 -74 -363q-164 -367 -553 -366q-299 0 -464 217q-162 215 -162 512zM293 709q0 -289 131 -447q123 -147 321 -147q219 0 342 176q111 157 111 418q0 287 -131 444q-125 150 -328 150 q-213 0 -336 -177q-110 -156 -110 -417zM552 1802q49 0 82 -39q23 -29 23 -67q0 -41 -23 -70q-29 -37 -84 -37q-57 0 -84 39q-23 29 -22 70q0 39 22 67q31 37 86 37zM942 1802q49 0 82 -39q23 -29 22 -67q0 -41 -22 -70q-29 -37 -84 -37q-57 0 -84 39q-23 29 -23 70 q0 39 23 67q31 37 86 37z" />
<glyph unicode="&#xd7;" vert-adv-y="1472" d="M150 166l352 352l-352 352l88 88l352 -352l352 352l88 -88l-352 -352l352 -352l-88 -88l-352 352l-352 -352z" />
<glyph unicode="&#xd8;" horiz-adv-x="1490" vert-adv-y="1472" d="M119 707q0 199 74 364q164 367 550 367q176 0 304 -72q49 -27 108 -82l123 154l70 -58l-134 -163q72 -109 101 -185q57 -147 57 -323q0 -197 -74 -363q-164 -367 -553 -366q-256 0 -409 153l-121 -149l-72 55l133 164q-157 211 -157 504zM293 709q0 -219 86 -379l678 835 q-49 55 -101 84q-90 53 -211 54q-219 0 -342 -177q-110 -156 -110 -417zM432 254q123 -139 313 -139q219 0 342 176q111 157 111 418q0 221 -86 381z" />
<glyph unicode="&#xd9;" horiz-adv-x="1376" vert-adv-y="1472" d="M16 1307v110h492v-110l-164 -7v-743q0 -139 18 -211q37 -141 142 -194q71 -37 184 -37q206 0 289 123q66 100 65 288v774l-163 7v110h483v-110l-164 -7v-675q0 -246 -16 -314q-37 -172 -185 -260q-121 -72 -309 -71q-317 0 -442 204q-55 90 -62 246q-4 102 -4 195v675z M631 1845l250 -299h-150l-299 299h199z" />
<glyph unicode="&#xda;" horiz-adv-x="1376" vert-adv-y="1472" d="M16 1307v110h492v-110l-164 -7v-743q0 -139 18 -211q37 -141 142 -194q71 -37 184 -37q206 0 289 123q66 100 65 288v774l-163 7v110h483v-110l-164 -7v-675q0 -246 -16 -314q-37 -172 -185 -260q-121 -72 -309 -71q-317 0 -442 204q-55 90 -62 246q-4 102 -4 195v675z M842 1845h198l-299 -299h-149z" />
<glyph unicode="&#xdb;" horiz-adv-x="1376" vert-adv-y="1472" d="M16 1307v110h492v-110l-164 -7v-743q0 -139 18 -211q37 -141 142 -194q71 -37 184 -37q206 0 289 123q66 100 65 288v774l-163 7v110h483v-110l-164 -7v-675q0 -246 -16 -314q-37 -172 -185 -260q-121 -72 -309 -71q-317 0 -442 204q-55 90 -62 246q-4 102 -4 195v675z M688 1747l-150 -201h-149l205 299h188l205 -299h-149z" />
<glyph unicode="&#xdc;" horiz-adv-x="1376" vert-adv-y="1472" d="M16 1307v110h492v-110l-164 -7v-743q0 -139 18 -211q37 -141 142 -194q71 -37 184 -37q206 0 289 123q66 100 65 288v774l-163 7v110h483v-110l-164 -7v-675q0 -246 -16 -314q-37 -172 -185 -260q-121 -72 -309 -71q-317 0 -442 204q-55 90 -62 246q-4 102 -4 195v675z M391 1698q0 37 25 67q31 37 84 37q49 0 82 -39q23 -29 22 -67q0 -41 -22 -70q-29 -37 -82.5 -37t-83.5 39q-25 31 -25 70zM780 1698q0 37 25 67q31 37 84 37q49 0 82 -39q23 -29 22 -67q0 -41 -22 -70q-29 -37 -82 -37q-57 0 -84 39q-25 31 -25 70z" />
<glyph unicode="&#xdd;" horiz-adv-x="1161" vert-adv-y="1472" d="M-59 1307v110h489v-110l-162 -7l224 -354q66 -106 96 -166q35 63 100 170l217 350l-162 7v110h480v-110l-138 -7l-421 -661v-522l180 -6v-111h-525v111l181 6v522l-422 661zM715 1845h198l-299 -299h-149z" />
<glyph unicode="&#xde;" horiz-adv-x="1058" vert-adv-y="1472" d="M29 0v111l164 6v1183l-164 7v110h491v-110l-164 -7v-167h111q249 0 369 -74q92 -59 133 -164q33 -78 32 -174q0 -152 -81 -252q-127 -156 -453 -156h-111v-196l193 -6v-111h-520zM356 451h68q203 0 287 45q117 61 116 227q0 94 -41 158q-47 80 -153 102q-78 16 -182 16 h-95v-548z" />
<glyph unicode="&#xdf;" horiz-adv-x="1181" vert-adv-y="1472" d="M49 0v111l150 6v903q0 125 10 190q23 158 143 240q98 68 240 68q182 0 295 -109q109 -109 108 -268q0 -174 -116 -269q-47 -37 -95 -55q-23 -8 -79 -14q92 -4 133 -19q121 -41 182 -151q53 -92 53 -215q0 -182 -104 -305q-115 -133 -334 -133q-78 0 -162 20l25 131 q68 -23 131 -22q127 0 200 77q80 84 80 232q0 162 -102 246q-90 72 -225 71q-4 0 -16.5 -1t-20.5 -1v125q125 6 188 57q98 77 98 222q0 109 -57 174q-68 82 -182 82q-150 0 -207 -123q-31 -68 -31 -248v-1022h-305z" />
<glyph unicode="&#xe0;" horiz-adv-x="1058" vert-adv-y="1472" d="M82 287q0 205 172 291q100 51 299 51q12 0 152 -4v28q0 111 -29 172q-53 109 -207 109q-125 0 -268 -90l-68 110q162 104 352 105q238 0 324 -141q41 -70 47 -193q4 -57 4 -127v-481l150 -6v-111h-287l-6 121q-45 -49 -103 -86q-90 -55 -208 -55q-162 0 -248 92 q-76 78 -76 215zM246 291q0 -86 49 -135q51 -51 139 -52q163 0 271 160v242q-74 4 -117 4q-166 0 -244 -43q-98 -57 -98 -176zM272 1497h199l250 -299h-150z" />
<glyph unicode="&#xe1;" horiz-adv-x="1058" vert-adv-y="1472" d="M82 287q0 205 172 291q100 51 299 51q12 0 152 -4v28q0 111 -29 172q-53 109 -207 109q-125 0 -268 -90l-68 110q162 104 352 105q238 0 324 -141q41 -70 47 -193q4 -57 4 -127v-481l150 -6v-111h-287l-6 121q-45 -49 -103 -86q-90 -55 -208 -55q-162 0 -248 92 q-76 78 -76 215zM246 291q0 -86 49 -135q51 -51 139 -52q163 0 271 160v242q-74 4 -117 4q-166 0 -244 -43q-98 -57 -98 -176zM356 1198l250 299h198l-299 -299h-149z" />
<glyph unicode="&#xe2;" horiz-adv-x="1058" vert-adv-y="1472" d="M82 287q0 205 172 291q100 51 299 51q12 0 152 -4v28q0 111 -29 172q-53 109 -207 109q-125 0 -268 -90l-68 110q162 104 352 105q238 0 324 -141q41 -70 47 -193q4 -57 4 -127v-481l150 -6v-111h-287l-6 121q-45 -49 -103 -86q-90 -55 -208 -55q-162 0 -248 92 q-76 78 -76 215zM246 291q0 -86 49 -135q51 -51 139 -52q163 0 271 160v242q-74 4 -117 4q-166 0 -244 -43q-98 -57 -98 -176zM203 1198l205 299h188l205 -299h-149l-150 201l-150 -201h-149z" />
<glyph unicode="&#xe3;" horiz-adv-x="1058" vert-adv-y="1472" d="M82 287q0 205 172 291q100 51 299 51q12 0 152 -4v28q0 111 -29 172q-53 109 -207 109q-125 0 -268 -90l-68 110q162 104 352 105q238 0 324 -141q41 -70 47 -193q4 -57 4 -127v-481l150 -6v-111h-287l-6 121q-45 -49 -103 -86q-90 -55 -208 -55q-162 0 -248 92 q-76 78 -76 215zM246 291q0 -86 49 -135q51 -51 139 -52q163 0 271 160v242q-74 4 -117 4q-166 0 -244 -43q-98 -57 -98 -176zM158 1237q10 80 43 129q55 80 149 80q70 0 183 -43q80 -31 116 -31q43 0 72 33q18 20 21 53h104q-8 -78 -41 -129q-51 -82 -151 -82 q-61 0 -175 41q-86 33 -127 33q-63 0 -88 -84h-106z" />
<glyph unicode="&#xe4;" horiz-adv-x="1058" vert-adv-y="1472" d="M82 287q0 205 172 291q100 51 299 51q12 0 152 -4v28q0 111 -29 172q-53 109 -207 109q-125 0 -268 -90l-68 110q162 104 352 105q238 0 324 -141q41 -70 47 -193q4 -57 4 -127v-481l150 -6v-111h-287l-6 121q-45 -49 -103 -86q-90 -55 -208 -55q-162 0 -248 92 q-76 78 -76 215zM246 291q0 -86 49 -135q51 -51 139 -52q163 0 271 160v242q-74 4 -117 4q-166 0 -244 -43q-98 -57 -98 -176zM229 1350q0 39 22 67q31 37 86 37q49 0 82 -39q23 -29 23 -67.5t-23 -67.5q-33 -39 -84 -39q-57 0 -84 39q-22 29 -22 70zM618 1350q0 39 23 67 q31 37 86 37q49 0 82 -39q23 -29 22.5 -67.5t-22.5 -67.5q-33 -39 -84 -39q-57 0 -84 39q-23 29 -23 70z" />
<glyph unicode="&#xe5;" horiz-adv-x="1058" vert-adv-y="1472" d="M82 287q0 205 172 291q100 51 299 51q12 0 152 -4v28q0 111 -29 172q-53 109 -207 109q-125 0 -268 -90l-68 110q162 104 352 105q238 0 324 -141q41 -70 47 -193q4 -57 4 -127v-481l150 -6v-111h-287l-6 121q-45 -49 -103 -86q-90 -55 -208 -55q-162 0 -248 92 q-76 78 -76 215zM246 291q0 -86 49 -135q51 -51 139 -52q163 0 271 160v242q-74 4 -117 4q-166 0 -244 -43q-98 -57 -98 -176zM518 1567q84 0 141 -58q61 -58 62 -147q0 -89 -62 -148q-57 -57 -143 -57t-143 57q-61 58 -61.5 147.5t61.5 147.5q59 58 145 58zM514 1485 q-55 0 -88 -41q-29 -35 -29 -82t29 -82q33 -41 90 -41t90 41q29 35 29 82t-29 82q-33 41 -92 41z" />
<glyph unicode="&#xe6;" horiz-adv-x="1644" vert-adv-y="1472" d="M82 274q0 197 176 283q109 51 295 51q57 0 152 -6v55q0 106 -29 168q-53 109 -207 109q-125 0 -268 -90l-68 110q162 104 352 105q238 0 328 -152q117 152 320 152q264 0 354 -228q51 -131 53 -354h-672q16 -180 74 -258q80 -115 238 -115q133 0 262 99l59 -121 q-152 -102 -327 -102q-158 0 -267 73q-55 37 -110 113q-63 -74 -121 -113q-111 -74 -264 -73q-168 0 -254 90q-76 75 -76 204zM246 281q0 -80 49 -127q52 -49 141 -50q131 0 217 99q51 57 52 133v143q-78 4 -119 4q-164 0 -242 -41q-98 -50 -98 -161zM872 602h502 q-4 117 -37 193q-61 139 -209 139q-143 0 -213 -137q-39 -76 -43 -195z" />
<glyph unicode="&#xe7;" horiz-adv-x="985" vert-adv-y="1472" d="M102 510q0 272 142 420q123 129 338 129q156 0 305 -55v-283h-146l-16 188q-80 25 -152 25q-156 0 -231 -111q-76 -106 -76 -295q0 -201 90 -315q84 -109 234 -109q135 0 264 93l59 -121q-150 -96 -325 -96q-227 0 -352 137q-134 145 -134 393zM269 -371l241 301h187 l-277 -301h-151z" />
<glyph unicode="&#xe8;" horiz-adv-x="1083" vert-adv-y="1472" d="M100 518q0 287 156 432q119 109 297 109q274 0 371 -228q55 -135 57 -354h-717q18 -178 80 -260q86 -113 254 -113q143 0 285 99l59 -121q-164 -102 -346 -102q-248 0 -381 161q-115 139 -115 377zM268 602h547q-2 113 -41 193q-68 139 -227 139q-156 0 -232 -137 q-45 -82 -47 -195zM287 1497h199l250 -299h-150z" />
<glyph unicode="&#xe9;" horiz-adv-x="1083" vert-adv-y="1472" d="M100 518q0 287 156 432q119 109 297 109q274 0 371 -228q55 -135 57 -354h-717q18 -178 80 -260q86 -113 254 -113q143 0 285 99l59 -121q-164 -102 -346 -102q-248 0 -381 161q-115 139 -115 377zM268 602h547q-2 113 -41 193q-68 139 -227 139q-156 0 -232 -137 q-45 -82 -47 -195zM406 1198l250 299h198l-299 -299h-149z" />
<glyph unicode="&#xea;" horiz-adv-x="1083" vert-adv-y="1472" d="M100 518q0 287 156 432q119 109 297 109q274 0 371 -228q55 -135 57 -354h-717q18 -178 80 -260q86 -113 254 -113q143 0 285 99l59 -121q-164 -102 -346 -102q-248 0 -381 161q-115 139 -115 377zM268 602h547q-2 113 -41 193q-68 139 -227 139q-156 0 -232 -137 q-45 -82 -47 -195zM244 1198l205 299h188l205 -299h-149l-150 201l-150 -201h-149z" />
<glyph unicode="&#xeb;" horiz-adv-x="1083" vert-adv-y="1472" d="M100 518q0 287 156 432q119 109 297 109q274 0 371 -228q55 -135 57 -354h-717q18 -178 80 -260q86 -113 254 -113q143 0 285 99l59 -121q-164 -102 -346 -102q-248 0 -381 161q-115 139 -115 377zM268 602h547q-2 113 -41 193q-68 139 -227 139q-156 0 -232 -137 q-45 -82 -47 -195zM262 1350q0 39 22 67q31 37 86 37q49 0 82 -39q23 -29 23 -67.5t-23 -67.5q-33 -39 -84 -39q-57 0 -84 39q-22 29 -22 70zM651 1350q0 39 23 67q31 37 86 37q49 0 82 -39q23 -29 22.5 -67.5t-22.5 -67.5q-33 -39 -84 -39q-57 0 -84 39q-23 29 -23 70z" />
<glyph unicode="&#xec;" horiz-adv-x="567" vert-adv-y="1472" d="M207 117v805l-150 6v110l305 11v-932l150 -6v-111h-455v111zM-41 1497h199l250 -299h-150z" />
<glyph unicode="&#xed;" horiz-adv-x="567" vert-adv-y="1472" d="M207 117v805l-150 6v110l305 11v-932l150 -6v-111h-455v111zM113 1198l250 299h198l-299 -299h-149z" />
<glyph unicode="&#xee;" horiz-adv-x="567" vert-adv-y="1472" d="M207 117v805l-150 6v110l305 11v-932l150 -6v-111h-455v111zM-49 1198l205 299h188l205 -299h-149l-150 201l-150 -201h-149z" />
<glyph unicode="&#xef;" horiz-adv-x="567" vert-adv-y="1472" d="M207 117v805l-150 6v110l305 11v-932l150 -6v-111h-455v111zM-37 1350q0 39 22 67q31 37 86 37q49 0 82 -39q23 -29 23 -67.5t-23 -67.5q-33 -39 -84 -39q-57 0 -84 39q-22 29 -22 70zM352 1350q0 39 23 67q31 37 86 37q49 0 82 -39q23 -29 22.5 -67.5t-22.5 -67.5 q-33 -39 -84 -39q-57 0 -84 39q-23 29 -23 70z" />
<glyph unicode="&#xf0;" horiz-adv-x="1101" vert-adv-y="1472" d="M100 487q0 227 115 366.5t309 139.5q106 0 205 -55q-84 156 -207 260l-270 -129l-41 90l221 107q-109 76 -211 114l66 131q152 -57 299 -174l274 131l41 -90l-235 -110q113 -113 198 -262q137 -240 137 -502q0 -233 -114 -377q-121 -147 -342 -147q-199 0 -314 120 q-131 137 -131 387zM264 492q0 -152 58 -254q74 -131 229.5 -131.5t224.5 131.5q61 111 62 262q0 168 -74 266q-78 102 -217 102q-131 0 -209 -102q-74 -98 -74 -274z" />
<glyph unicode="&#xf1;" horiz-adv-x="1245" vert-adv-y="1472" d="M57 0v111l150 6v805l-150 6v110l301 11v-175q70 66 111 97q115 88 262 88q211 0 283 -168q35 -86 35 -270v-504l149 -6v-111h-455v111l150 6v504q0 141 -27 204q-47 109 -176 109q-168 0 -328 -195v-622l150 -6v-111h-455zM279 1237q10 80 43 129q55 80 149 80 q70 0 183 -43q80 -31 116 -31q43 0 72 33q18 20 21 53h104q-8 -78 -41 -129q-51 -82 -151 -82q-61 0 -175 41q-86 33 -127 33q-63 0 -88 -84h-106z" />
<glyph unicode="&#xf2;" horiz-adv-x="1159" vert-adv-y="1472" d="M102 520q0 240 134 389q135 150 350 150q221 0 356 -172q117 -147 117 -369q0 -240 -133 -389q-135 -150 -346 -149q-227 0 -363 172q-115 145 -115 368zM266 518q0 -168 72 -280q86 -133 242 -134q168 0 254 154q61 106 61 262q0 166 -74 281q-86 133 -246 133 q-94 0 -172 -60q-137 -106 -137 -356zM324 1497h199l250 -299h-150z" />
<glyph unicode="&#xf3;" horiz-adv-x="1159" vert-adv-y="1472" d="M102 520q0 240 134 389q135 150 350 150q221 0 356 -172q117 -147 117 -369q0 -240 -133 -389q-135 -150 -346 -149q-227 0 -363 172q-115 145 -115 368zM266 518q0 -168 72 -280q86 -133 242 -134q168 0 254 154q61 106 61 262q0 166 -74 281q-86 133 -246 133 q-94 0 -172 -60q-137 -106 -137 -356zM449 1198l250 299h198l-299 -299h-149z" />
<glyph unicode="&#xf4;" horiz-adv-x="1159" vert-adv-y="1472" d="M102 520q0 240 134 389q135 150 350 150q221 0 356 -172q117 -147 117 -369q0 -240 -133 -389q-135 -150 -346 -149q-227 0 -363 172q-115 145 -115 368zM266 518q0 -168 72 -280q86 -133 242 -134q168 0 254 154q61 106 61 262q0 166 -74 281q-86 133 -246 133 q-94 0 -172 -60q-137 -106 -137 -356zM281 1198l205 299h188l205 -299h-149l-150 201l-150 -201h-149z" />
<glyph unicode="&#xf5;" horiz-adv-x="1159" vert-adv-y="1472" d="M102 520q0 240 134 389q135 150 350 150q221 0 356 -172q117 -147 117 -369q0 -240 -133 -389q-135 -150 -346 -149q-227 0 -363 172q-115 145 -115 368zM266 518q0 -168 72 -280q86 -133 242 -134q168 0 254 154q61 106 61 262q0 166 -74 281q-86 133 -246 133 q-94 0 -172 -60q-137 -106 -137 -356zM236 1237q10 80 43 129q55 80 149 80q70 0 183 -43q80 -31 116 -31q43 0 72 33q18 20 21 53h104q-8 -78 -41 -129q-51 -82 -151 -82q-61 0 -175 41q-86 33 -127 33q-63 0 -88 -84h-106z" />
<glyph unicode="&#xf6;" horiz-adv-x="1159" vert-adv-y="1472" d="M102 520q0 240 134 389q135 150 350 150q221 0 356 -172q117 -147 117 -369q0 -240 -133 -389q-135 -150 -346 -149q-227 0 -363 172q-115 145 -115 368zM266 518q0 -168 72 -280q86 -133 242 -134q168 0 254 154q61 106 61 262q0 166 -74 281q-86 133 -246 133 q-94 0 -172 -60q-137 -106 -137 -356zM279 1350q0 39 22 67q31 37 86 37q49 0 82 -39q23 -29 23 -67.5t-23 -67.5q-33 -39 -84 -39q-57 0 -84 39q-22 29 -22 70zM668 1350q0 39 23 67q31 37 86 37q49 0 82 -39q23 -29 22.5 -67.5t-22.5 -67.5q-33 -39 -84 -39q-57 0 -84 39 q-23 29 -23 70z" />
<glyph unicode="&#xf7;" vert-adv-y="1472" d="M72 457v123h1036v-123h-1036zM477 188q0 51 35 82q31 31 80 31q47 0 78 -31q33 -33 32.5 -82t-32.5 -82q-31 -31 -78 -30q-49 0 -80 30q-35 35 -35 82zM477 850q0 51 35 82q31 31 80 31q47 0 78 -31q33 -33 32.5 -82t-32.5 -82q-31 -31 -78 -31q-49 0 -80 31 q-35 35 -35 82z" />
<glyph unicode="&#xf8;" horiz-adv-x="1173" vert-adv-y="1472" d="M82 27l129 143q-102 145 -102 350q0 240 133 389q135 150 348 150q184 0 315 -123l123 135l66 -57l-131 -144q102 -150 102 -352q0 -240 -133 -389q-135 -150 -346 -149q-188 0 -320 124l-123 -135zM272 518q0 -125 45 -231l492 540q-88 106 -221 107q-168 0 -254 -154 q-62 -108 -62 -262zM365 211q86 -106 221 -107q170 0 256 154q59 104 59 260q0 137 -45 236z" />
<glyph unicode="&#xf9;" horiz-adv-x="1226" vert-adv-y="1472" d="M49 928v110l305 11v-631q0 -147 25 -205q47 -109 174 -109q164 0 319 181v637l-149 6v110l305 11v-932l150 -6v-111h-291v164q-57 -57 -113 -96q-123 -88 -264 -88q-209 0 -277 167q-35 86 -34 279v496zM330 1497h199l250 -299h-150z" />
<glyph unicode="&#xfa;" horiz-adv-x="1226" vert-adv-y="1472" d="M49 928v110l305 11v-631q0 -147 25 -205q47 -109 174 -109q164 0 319 181v637l-149 6v110l305 11v-932l150 -6v-111h-291v164q-57 -57 -113 -96q-123 -88 -264 -88q-209 0 -277 167q-35 86 -34 279v496zM463 1198l250 299h198l-299 -299h-149z" />
<glyph unicode="&#xfb;" horiz-adv-x="1226" vert-adv-y="1472" d="M49 928v110l305 11v-631q0 -147 25 -205q47 -109 174 -109q164 0 319 181v637l-149 6v110l305 11v-932l150 -6v-111h-291v164q-57 -57 -113 -96q-123 -88 -264 -88q-209 0 -277 167q-35 86 -34 279v496zM295 1198l205 299h188l205 -299h-149l-150 201l-150 -201h-149z " />
<glyph unicode="&#xfc;" horiz-adv-x="1226" vert-adv-y="1472" d="M49 928v110l305 11v-631q0 -147 25 -205q47 -109 174 -109q164 0 319 181v637l-149 6v110l305 11v-932l150 -6v-111h-291v164q-57 -57 -113 -96q-123 -88 -264 -88q-209 0 -277 167q-35 86 -34 279v496zM311 1350q0 39 22 67q31 37 86 37q49 0 82 -39q23 -29 23 -67.5 t-23 -67.5q-33 -39 -84 -39q-57 0 -84 39q-22 29 -22 70zM700 1350q0 39 23 67q31 37 86 37q49 0 82 -39q23 -29 22.5 -67.5t-22.5 -67.5q-33 -39 -84 -39q-57 0 -84 39q-23 29 -23 70z" />
<glyph unicode="&#xfd;" horiz-adv-x="1015" vert-adv-y="1472" d="M-41 928v110h451v-110l-166 -6l192 -504q51 -135 84 -238l88 244l187 498l-164 6v110h428v-110l-119 -6l-379 -1010q-66 -180 -139 -270q-82 -102 -240 -103q-78 0 -153 21l26 127q68 -23 117 -23q86 0 135 51q74 74 133 271l-362 936zM420 1198l250 299h198l-299 -299 h-149z" />
<glyph unicode="&#xfe;" horiz-adv-x="1163" vert-adv-y="1472" d="M37 -330l149 6v1704l-149 6v111l305 10v-624q59 72 115 110q90 66 194 66q201 0 318 -195q88 -143 88 -354q0 -258 -137 -408q-111 -123 -273 -122q-184 0 -305 163v-467l170 -6v-110h-475v110zM342 299q98 -195 274 -195q145 0 215 132q61 111 62 278q0 174 -64 287 q-72 133 -211 133q-156 0 -276 -197v-438z" />
<glyph unicode="&#xff;" horiz-adv-x="1015" vert-adv-y="1472" d="M-41 928v110h451v-110l-166 -6l192 -504q51 -135 84 -238l88 244l187 498l-164 6v110h428v-110l-119 -6l-379 -1010q-66 -180 -139 -270q-82 -102 -240 -103q-78 0 -153 21l26 127q68 -23 117 -23q86 0 135 51q74 74 133 271l-362 936zM227 1350q0 39 22 67q31 37 86 37 q49 0 82 -39q23 -29 23 -67.5t-23 -67.5q-33 -39 -84 -39q-57 0 -84 39q-22 29 -22 70zM616 1350q0 39 23 67q31 37 86 37q49 0 82 -39q23 -29 22.5 -67.5t-22.5 -67.5q-33 -39 -84 -39q-57 0 -84 39q-23 29 -23 70z" />
<glyph unicode="&#x131;" horiz-adv-x="567" vert-adv-y="1472" d="M207 117v805l-150 6v110l305 11v-932l150 -6v-111h-455v111z" />
<glyph unicode="&#x152;" horiz-adv-x="1941" vert-adv-y="1472" d="M119 715q0 389 237 577q123 95 289 117q74 8 232 8h905v-360h-146l-16 225h-442v-496h555v-135h-555v-516h473l16 225h145v-360h-923q-217 0 -322 29q-229 63 -354 284q-94 171 -94 402zM293 707q0 -315 174 -465q88 -76 229 -97q76 -10 191 -10h127v1147h-127 q-190 0 -273 -25q-180 -53 -262 -239q-59 -135 -59 -311z" />
<glyph unicode="&#x153;" horiz-adv-x="1861" vert-adv-y="1472" d="M109 520q0 240 133 389q135 150 346 150q244 0 387 -205q121 205 356 205q274 0 371 -228q51 -119 55 -354h-704q14 -172 77 -260q82 -113 246 -113q143 0 285 99l59 -121q-164 -102 -346 -102q-264 0 -397 208q-147 -209 -389 -208q-229 0 -365 172q-114 145 -114 368z M272 518q0 -168 72 -280q86 -133 244 -134q168 0 254 152q59 104 59 264q0 168 -72 281q-86 133 -245 133q-94 0 -172 -60q-140 -108 -140 -356zM1057 602h536q-2 113 -41 193q-66 139 -227 139q-150 0 -223 -137q-41 -78 -45 -195z" />
<glyph unicode="&#x178;" horiz-adv-x="1161" vert-adv-y="1472" d="M-59 1307v110h489v-110l-162 -7l224 -354q66 -106 96 -166q35 63 100 170l217 350l-162 7v110h480v-110l-138 -7l-421 -661v-522l180 -6v-111h-525v111l181 6v522l-422 661zM397 1802q49 0 82 -39q23 -29 23 -67q0 -41 -23 -70q-29 -37 -84 -37q-57 0 -84 39 q-23 29 -22 70q0 39 22 67q31 37 86 37zM787 1802q49 0 82 -39q23 -29 22 -67q0 -41 -22 -70q-29 -37 -84 -37q-57 0 -84 39q-23 29 -23 70q0 39 23 67q31 37 86 37z" />
<glyph unicode="&#x2c6;" horiz-adv-x="1024" vert-adv-y="1472" d="M213 1198l205 299h188l205 -299h-149l-150 201l-150 -201h-149z" />
<glyph unicode="&#x2da;" horiz-adv-x="1024" vert-adv-y="1472" d="M514 1567q84 0 141 -58q61 -58 62 -147q0 -89 -62 -148q-57 -57 -143 -57t-143 57q-61 58 -61.5 147.5t61.5 147.5q59 58 145 58zM510 1485q-55 0 -88 -41q-29 -35 -29 -82t29 -82q33 -41 90 -41t90 41q29 35 29 82t-29 82q-33 41 -92 41z" />
<glyph unicode="&#x2dc;" horiz-adv-x="1024" vert-adv-y="1472" d="M168 1237q10 80 43 129q55 80 149 80q70 0 183 -43q80 -31 116 -31q43 0 72 33q18 20 21 53h104q-8 -78 -41 -129q-51 -82 -151 -82q-61 0 -175 41q-86 33 -127 33q-63 0 -88 -84h-106z" />
<glyph unicode="&#x2000;" horiz-adv-x="921" vert-adv-y="0" />
<glyph unicode="&#x2001;" horiz-adv-x="1843" vert-adv-y="0" />
<glyph unicode="&#x2002;" horiz-adv-x="921" vert-adv-y="0" />
<glyph unicode="&#x2003;" horiz-adv-x="1843" vert-adv-y="0" />
<glyph unicode="&#x2004;" horiz-adv-x="614" vert-adv-y="0" />
<glyph unicode="&#x2005;" horiz-adv-x="460" vert-adv-y="0" />
<glyph unicode="&#x2006;" horiz-adv-x="305" vert-adv-y="0" />
<glyph unicode="&#x2007;" horiz-adv-x="305" vert-adv-y="0" />
<glyph unicode="&#x2008;" horiz-adv-x="229" vert-adv-y="0" />
<glyph unicode="&#x2009;" horiz-adv-x="368" vert-adv-y="0" />
<glyph unicode="&#x200a;" horiz-adv-x="100" vert-adv-y="0" />
<glyph unicode="&#x2010;" horiz-adv-x="636" vert-adv-y="1472" d="M82 510v125h473v-125h-473z" />
<glyph unicode="&#x2011;" horiz-adv-x="636" vert-adv-y="1472" d="M82 510v125h473v-125h-473z" />
<glyph unicode="&#x2013;" vert-adv-y="1472" d="M72 510v125h1038v-125h-1038z" />
<glyph unicode="&#x2014;" horiz-adv-x="2048" vert-adv-y="1472" d="M-41 510v125h2130v-125h-2130z" />
<glyph unicode="&#x2018;" horiz-adv-x="342" vert-adv-y="1472" d="M6 1038l180 459h144l-144 -459h-180z" />
<glyph unicode="&#x2019;" horiz-adv-x="342" vert-adv-y="1472" d="M14 1038l142 459h182l-182 -459h-142z" />
<glyph unicode="&#x201a;" horiz-adv-x="342" vert-adv-y="1472" d="M-6 -254l141 459h182l-182 -459h-141z" />
<glyph unicode="&#x201c;" horiz-adv-x="663" vert-adv-y="1472" d="M6 1038l180 459h144l-144 -459h-180zM326 1038l182 459h141l-141 -459h-182z" />
<glyph unicode="&#x201d;" horiz-adv-x="663" vert-adv-y="1472" d="M14 1038l142 459h182l-182 -459h-142zM334 1038l141 459h182l-182 -459h-141z" />
<glyph unicode="&#x201e;" horiz-adv-x="663" vert-adv-y="1472" d="M-6 -254l141 459h182l-182 -459h-141zM313 -254l144 459h180l-180 -459h-144z" />
<glyph unicode="&#x2022;" horiz-adv-x="1024" vert-adv-y="1472" d="M219 719q0 127 88 211q86 84 211 84q119 0 205 -86t86 -207q0 -123 -86 -209t-209 -86t-207 84q-88 86 -88 209z" />
<glyph unicode="&#x2026;" horiz-adv-x="1767" vert-adv-y="1472" d="M174 100q0 55 37 88q33 33 86 33q51 0 84 -33q35 -33 35 -88q0 -53 -35 -88q-33 -33 -86 -32q-51 0 -84 32q-37 37 -37 88zM764 100q0 55 37 88q33 33 86 33q51 0 84 -33q35 -33 35 -88q0 -53 -35 -88q-33 -33 -86 -32q-51 0 -84 32q-37 37 -37 88zM1354 100q0 55 37 88 q33 33 86 33q51 0 84 -33q35 -33 34 -88q0 -53 -34 -88q-33 -33 -86 -32q-51 0 -84 32q-37 37 -37 88z" />
<glyph unicode="&#x202f;" horiz-adv-x="368" vert-adv-y="0" />
<glyph unicode="&#x2039;" horiz-adv-x="577" vert-adv-y="1472" d="M68 510l317 426l107 -74l-240 -352l240 -352l-107 -72z" />
<glyph unicode="&#x203a;" horiz-adv-x="577" vert-adv-y="1472" d="M86 160l240 352l-240 352l107 72l317 -424l-317 -426z" />
<glyph unicode="&#x205f;" horiz-adv-x="460" vert-adv-y="0" />
<glyph unicode="&#x20ac;" vert-adv-y="1472" d="M8 528l37 111h180q-2 25 -2 61q0 45 2 78h-217l37 111h197q43 219 168 362q162 186 424 187q162 0 329 -86l-47 -129q-156 84 -287 84q-324 0 -421 -418h593l-38 -111h-570q-4 -49 -4 -98q0 -29 2 -41h522l-36 -111h-476q66 -418 420 -417q150 0 318 75l41 -127 q-190 -80 -365 -79q-307 0 -459 208q-100 137 -120 340h-228z" />
<glyph unicode="&#x2122;" horiz-adv-x="1781" vert-adv-y="1472" d="M20 1200v217h662v-217h-109l-8 123h-153v-598l100 -6v-80h-328v80l105 6v598h-154l-8 -123h-107zM713 639v80l90 6v606l-90 6v80h245l250 -653l246 653h242v-80l-92 -6v-606l92 -6v-80h-287v80l74 6v254q0 100 8 260q-53 -180 -84 -256l-135 -344h-131l-127 309 q-55 137 -101 291q6 -129 7 -260v-254l79 -6v-80h-286z" />
<glyph unicode="&#xea11;" horiz-adv-x="1024" vert-adv-y="1472" d="M319 1802q49 0 82 -39q23 -29 23 -67q0 -41 -23 -70q-29 -37 -84 -37q-57 0 -84 39q-23 29 -22 70q0 39 22 67q31 37 86 37zM709 1802q49 0 82 -39q23 -29 22 -67q0 -41 -22 -70q-29 -37 -84 -37q-57 0 -84 39q-23 29 -23 70q0 39 23 67q31 37 86 37z" />
<glyph unicode="&#xea14;" horiz-adv-x="1024" vert-adv-y="1472" d="M590 1845h198l-299 -299h-149z" />
<glyph unicode="&#xea15;" horiz-adv-x="1024" vert-adv-y="1472" d="M455 1845l250 -299h-150l-299 299h199z" />
<glyph unicode="&#xea16;" horiz-adv-x="1024" vert-adv-y="1472" d="M512 1747l-150 -201h-149l205 299h188l205 -299h-149z" />
<glyph unicode="&#xea19;" horiz-adv-x="1024" vert-adv-y="1472" d="M274 1585h-106q10 78 43 127q57 82 149 82q70 0 183 -43q80 -31 116 -31q45 0 72 31q16 20 21 55h104q-8 -78 -41 -129q-51 -82 -151 -82q-61 0 -175 41q-86 33 -127 33q-63 0 -88 -84z" />
</font>
</defs>
</svg>
